<?xml version="1.0" standalone="no"?>
<!DOCTYPE svg PUBLIC "-//W3C//DTD SVG 20010904//EN"
 "http://www.w3.org/TR/2001/REC-SVG-20010904/DTD/svg10.dtd">
<svg version="1.0" xmlns="http://www.w3.org/2000/svg"
 width="378.000000pt" height="432.000000pt" viewBox="0 0 378.000000 432.000000"
 preserveAspectRatio="xMidYMid meet">

<g transform="translate(0.000000,432.000000) scale(0.100000,-0.100000)"
fill="#000000" stroke="none">
<path d="M1640 3803 c-25 -8 -61 -27 -80 -42 -19 -14 -48 -33 -63 -40 -15 -8
-44 -35 -65 -60 -20 -25 -44 -53 -53 -61 -9 -8 -21 -33 -27 -55 -6 -22 -18
-66 -28 -99 -14 -45 -15 -62 -6 -77 6 -10 12 -40 12 -66 1 -74 4 -107 13 -120
4 -6 12 -47 18 -91 l12 -79 47 23 47 22 23 96 c13 53 29 104 36 114 13 16 14
16 19 -3 9 -29 44 -29 73 0 13 13 40 29 60 36 34 11 47 19 75 45 7 7 29 9 52
6 22 -2 37 -1 33 3 -4 4 -1 13 6 20 9 9 41 13 104 11 51 0 92 3 92 7 0 5 6 7
14 4 7 -3 17 -2 22 3 5 4 30 15 56 24 42 14 50 14 77 0 17 -9 31 -23 31 -33 0
-32 41 -142 67 -182 22 -34 31 -39 64 -39 l37 0 4 76 c2 41 -1 85 -5 97 -14
38 -18 85 -7 92 5 3 10 22 10 42 0 30 -8 44 -53 87 -98 94 -132 118 -226 162
-133 62 -169 73 -268 79 -49 3 -108 7 -133 9 -25 2 -65 -2 -90 -11z m374 -369
c24 -9 19 -19 -10 -22 -33 -3 -51 8 -33 19 17 10 23 11 43 3z"/>
<path d="M2179 3236 c-2 -2 -40 -9 -84 -15 -61 -8 -83 -16 -94 -31 -7 -11 -19
-20 -26 -20 -19 0 -35 -24 -26 -38 6 -10 15 -9 43 2 19 8 46 17 59 19 13 3 51
10 84 16 33 6 78 12 100 14 l40 2 -40 25 c-51 31 -50 31 -56 26z"/>
<path d="M1854 3169 c-10 -17 23 -46 37 -32 7 7 9 19 6 27 -7 18 -33 21 -43 5z"/>
<path d="M1654 3150 c-91 -10 -105 -15 -128 -47 l-19 -26 34 7 c102 22 199 25
168 5 -10 -6 -6 -9 14 -9 20 0 26 4 21 13 -4 6 -4 9 0 5 5 -4 18 -3 31 2 14 5
26 5 33 -2 15 -15 25 8 12 32 -6 11 -17 20 -24 20 -7 0 -26 2 -42 4 -16 2 -61
0 -100 -4z"/>
<path d="M2310 3135 c0 -11 30 -119 35 -123 10 -11 5 78 -7 103 -9 21 -28 35
-28 20z"/>
<path d="M2065 3110 c-3 -5 -1 -10 4 -10 6 0 11 5 11 10 0 6 -2 10 -4 10 -3 0
-8 -4 -11 -10z"/>
<path d="M2386 3094 c-9 -24 -7 -80 5 -110 19 -53 28 -163 17 -234 -6 -39 -14
-70 -19 -70 -5 0 -9 -6 -9 -13 0 -8 -11 -27 -25 -43 -14 -16 -25 -33 -25 -37
0 -15 -63 -87 -76 -87 -8 0 -12 14 -11 43 1 24 -7 58 -18 82 -18 35 -28 42
-92 65 -40 14 -80 32 -89 41 -15 16 -15 17 4 23 19 6 37 34 29 43 -8 8 -85 5
-127 -5 -25 -6 -66 -11 -91 -12 -47 0 -77 -19 -64 -40 9 -14 52 -13 58 3 2 6
7 9 11 6 12 -11 -84 -99 -108 -99 -32 0 -96 -57 -96 -86 0 -13 7 -51 16 -83
16 -57 16 -59 -4 -79 -12 -12 -24 -17 -27 -12 -3 5 -1 11 5 15 17 10 2 24 -20
18 -13 -4 -20 0 -20 10 0 8 -7 18 -16 21 -8 3 -12 11 -9 17 4 6 -6 25 -23 42
-57 60 -100 188 -111 328 -5 68 -12 102 -24 113 -9 10 -18 12 -22 6 -3 -5 -2
-10 3 -10 6 0 7 -14 2 -35 -4 -19 -4 -35 0 -37 5 -2 11 -25 14 -53 14 -114 25
-183 37 -228 9 -36 10 -56 2 -77 -8 -23 -8 -27 2 -23 8 2 19 -6 26 -18 13 -24
29 -137 22 -155 -2 -6 -41 -28 -86 -49 -179 -81 -229 -111 -288 -168 -16 -16
-51 -34 -78 -42 -28 -7 -63 -22 -78 -32 -15 -11 -77 -46 -138 -78 -136 -72
-248 -175 -264 -244 -5 -23 -22 -58 -37 -77 -61 -76 -77 -101 -105 -160 -16
-33 -33 -91 -39 -130 -15 -110 -25 -145 -59 -213 -17 -36 -31 -69 -31 -75 -1
-48 -167 -344 -218 -390 -15 -13 -22 -31 -22 -54 0 -21 -14 -59 -35 -98 l-35
-62 0 -226 0 -226 450 0 c420 0 451 1 456 18 4 9 18 46 32 82 17 43 27 86 28
126 0 39 7 70 17 85 10 13 17 30 17 38 0 8 2 12 5 10 5 -6 -12 -304 -20 -336
l-5 -23 695 0 695 0 73 74 c56 58 80 76 109 81 55 10 71 4 201 -80 l117 -75
445 0 445 0 0 766 0 765 -66 99 c-87 130 -251 290 -361 352 -43 24 -132 66
-198 92 -66 27 -133 61 -150 76 -32 29 -83 50 -121 50 -12 0 -61 20 -108 45
-48 25 -94 45 -103 45 -9 0 -31 11 -50 26 -18 14 -48 30 -66 35 -47 15 -137
60 -137 69 0 4 6 23 14 41 7 19 17 60 21 92 6 53 8 57 32 57 25 0 25 1 9 19
-19 21 -24 94 -11 152 4 17 2 36 -4 43 -14 17 -30 100 -37 195 -3 41 -7 78
-10 83 -8 13 -21 9 -28 -8z m-425 -453 c-11 -19 -40 -35 -49 -26 -3 3 0 5 7 5
7 0 9 5 6 10 -9 15 4 30 26 30 16 0 18 -3 10 -19z m83 -67 c24 -9 19 -21 -11
-32 -16 -6 -21 -11 -12 -11 9 -1 33 6 52 14 20 8 42 13 49 11 7 -3 25 -7 39
-10 29 -6 38 -22 45 -73 3 -21 0 -33 -8 -33 -6 0 -9 -3 -6 -6 4 -3 -2 -14 -11
-23 -20 -20 -112 -41 -180 -41 -25 0 -59 -7 -76 -16 -16 -8 -43 -16 -60 -16
-16 0 -38 -5 -49 -10 -25 -14 -61 30 -76 95 -17 69 -9 91 42 107 24 8 46 18
49 24 11 15 184 31 213 20z m277 -47 c-13 -13 -26 -3 -16 12 3 6 11 8 17 5 6
-4 6 -10 -1 -17z m100 -219 c8 -35 13 -110 13 -168 -1 -99 -10 -145 -49 -233
-6 -14 -4 -16 10 -11 14 6 16 3 10 -17 -12 -37 -35 -80 -70 -129 -17 -25 -49
-73 -70 -107 -44 -73 -43 -85 16 -178 l40 -64 -22 -43 c-12 -23 -31 -55 -42
-70 -11 -15 -18 -31 -14 -34 3 -3 22 17 43 45 20 29 38 50 41 47 2 -2 -17 -73
-42 -157 -26 -85 -52 -170 -57 -189 -5 -19 -24 -71 -43 -115 -18 -44 -45 -114
-59 -156 -43 -122 -48 -124 -80 -38 -15 41 -30 81 -32 90 -4 12 4 18 33 22 21
4 50 7 66 7 15 0 27 4 27 10 0 5 -8 6 -17 3 -13 -5 -15 -2 -10 11 5 13 1 19
-12 23 -15 4 -18 12 -15 39 5 41 -11 46 -21 7 -6 -27 -7 -27 -21 -9 -17 24
-18 37 -3 33 6 -1 14 4 16 11 3 7 -4 12 -15 12 -24 0 -33 -27 -18 -52 31 -52
-45 -12 -130 69 -66 63 -155 254 -160 345 -2 32 0 58 5 58 15 0 33 69 26 98
-4 15 -31 90 -61 167 -89 233 -112 345 -106 528 l2 68 48 -50 c26 -27 58 -63
72 -80 14 -16 28 -30 32 -31 3 0 32 -25 63 -55 31 -30 62 -55 69 -55 8 0 13
-8 12 -17 -1 -16 10 -18 104 -18 93 1 110 4 150 25 47 27 100 94 95 121 -2 10
5 25 16 35 10 9 19 22 19 29 0 6 13 26 30 45 16 18 42 68 57 112 16 43 31 78
34 78 4 0 13 -28 20 -62z m-686 -818 c7 -12 -2 -12 -30 0 -19 8 -19 9 2 9 12
1 25 -3 28 -9z"/>
<path d="M1860 2487 c0 -7 6 -21 14 -32 11 -16 22 -17 76 -12 58 6 89 23 90
50 0 4 -40 7 -90 7 -67 0 -90 -3 -90 -13z"/>
<path d="M2204 1218 l-19 -23 23 19 c21 18 27 26 19 26 -2 0 -12 -10 -23 -22z"/>
<path d="M2036 3091 c-4 -6 -2 -11 5 -11 8 0 8 -4 -1 -15 -7 -9 -10 -19 -6
-23 4 -4 12 1 17 11 12 21 35 22 43 2 3 -9 19 -15 41 -15 24 0 35 4 35 15 0 8
7 15 16 15 14 0 15 -2 3 -17 -13 -15 -11 -16 11 -10 14 4 32 7 40 7 8 0 -3 11
-25 25 -43 26 -102 32 -137 14 -15 -8 -22 -8 -28 1 -5 9 -9 9 -14 1z"/>
<path d="M1778 3083 c7 -3 16 -2 19 1 4 3 -2 6 -13 5 -11 0 -14 -3 -6 -6z"/>
<path d="M1724 3051 c4 -5 -11 -12 -32 -16 -41 -7 -113 -44 -119 -61 -2 -7 6
-10 22 -7 14 3 25 12 25 19 0 8 7 14 15 14 8 0 15 -4 15 -10 0 -5 15 -9 33 -9
23 1 26 3 10 6 -13 2 -23 9 -23 14 0 9 33 13 87 10 21 -2 31 2 29 11 -3 25
-17 38 -42 38 -14 0 -23 -4 -20 -9z"/>
<path d="M1935 3050 c-3 -5 -1 -10 4 -10 6 0 11 5 11 10 0 6 -2 10 -4 10 -3 0
-8 -4 -11 -10z"/>
<path d="M1852 3026 c-13 -29 -35 -146 -29 -153 6 -5 32 83 41 140 8 43 4 47
-12 13z"/>
<path d="M1960 3019 c0 -19 63 -148 73 -149 16 0 5 35 -29 93 -42 72 -44 75
-44 56z"/>
<path d="M1481 3004 c0 -11 3 -14 6 -6 3 7 2 16 -1 19 -3 4 -6 -2 -5 -13z"/>
<path d="M2444 2974 c-4 -17 -1 -31 9 -42 22 -22 31 -10 23 33 -8 41 -23 46
-32 9z"/>
<path d="M2466 2896 c3 -9 11 -16 16 -16 13 0 5 23 -10 28 -7 2 -10 -2 -6 -12z"/>
<path d="M2486 2857 c3 -10 9 -15 12 -12 3 3 0 11 -7 18 -10 9 -11 8 -5 -6z"/>
<path d="M1370 2830 c0 -19 3 -21 12 -12 9 9 9 15 0 24 -9 9 -12 7 -12 -12z"/>
</g>
</svg>
